inDegrees=no
DataType=double
version=3
OpenSimVersion=4.4-2022-10-11-798caa840
endheader
time	elv_angle	shoulder_elv	shoulder_rot	elbow_flexion	pro_sup	deviation	flexion
3.6031277150	1.0507783890	0.5402321219	1.5557923317	1.6422983408	0.2114752680	0.1248985976	0.2728930414
3.6072980017	1.0507801771	0.5402264595	1.5557913780	1.6422863007	0.2113821357	0.1248997673	0.2729512453
3.6114682884	1.0507822037	0.5402209759	1.5557905436	1.6422743797	0.2112902552	0.1249009296	0.2730086148
3.6156385752	1.0507841110	0.5402156711	1.5557898283	1.6422626972	0.2111996114	0.1249020696	0.2730651796
3.6198088619	1.0507861376	0.5402106047	1.5557892323	1.6422510147	0.2111101747	0.1249031872	0.2731209397
3.6239791486	1.0507881641	0.5402056575	1.5557887554	1.6422395706	0.2110219449	0.1249043047	0.2731758952
3.6281494353	1.0507904291	0.5402008891	1.5557882786	1.6422283649	0.2109348923	0.1249053925	0.2732300758
3.6323197220	1.0507925749	0.5401962399	1.5557879210	1.6422172785	0.2108490020	0.1249064654	0.2732835114
3.6364900087	1.0507948399	0.5401917696	1.5557876825	1.6422061920	0.2107642740	0.1249075308	0.2733361721
3.6406602954	1.0507972240	0.5401874781	1.5557874441	1.6421953440	0.2106806785	0.1249085814	0.2733880877
3.6448305821	1.0507994890	0.5401832461	1.5557873249	1.6421847343	0.2105982155	0.1249096096	0.2734392881
3.6490008688	1.0508018732	0.5401792526	1.5557873249	1.6421741247	0.2105168551	0.1249106228	0.2734897733
3.6531711555	1.0508043766	0.5401753187	1.5557873249	1.6421637535	0.2104365975	0.1249116436	0.2735395730
3.6573414422	1.0508068800	0.5401715040	1.5557873249	1.6421535015	0.2103574276	0.1249126345	0.2735886574
3.6615117289	1.0508093834	0.5401678085	1.5557874441	1.6421433687	0.2102793157	0.1249135956	0.2736370265
3.6656820156	1.0508118868	0.5401642919	1.5557875633	1.6421332359	0.2102022767	0.1249145716	0.2736847699
3.6698523023	1.0508143902	0.5401608348	1.5557878017	1.6421233416	0.2101262510	0.1249155179	0.2737318277
3.6740225891	1.0508170128	0.5401574969	1.5557880402	1.6421136856	0.2100512683	0.1249164641	0.2737782300
3.6781928758	1.0508196354	0.5401542783	1.5557882786	1.6421040297	0.2099773139	0.1249173731	0.2738239765
3.6823631625	1.0508222580	0.5401511788	1.5557887554	1.6420944929	0.2099043429	0.1249182895	0.2738691270
3.6865334492	1.0508248806	0.5401481390	1.5557891130	1.6420851946	0.2098323703	0.1249191910	0.2739136517
3.6907037359	1.0508276224	0.5401451588	1.5557895899	1.6420757771	0.2097613662	0.1249200776	0.2739575207
3.6948740226	1.0508302450	0.5401423573	1.5557899475	1.6420667171	0.2096913457	0.1249209493	0.2740008235
3.6990443093	1.0508328676	0.5401395559	1.5557904243	1.6420576572	0.2096222490	0.1249218136	0.2740435004
3.7032145960	1.0508356094	0.5401368737	1.5557910204	1.6420488358	0.2095541060	0.1249226630	0.2740856111
3.7073848827	1.0508382320	0.5401342511	1.5557914972	1.6420401335	0.2094868869	0.1249235049	0.2741271555
3.7115551694	1.0508409739	0.5401317477	1.5557920933	1.6420314312	0.2094205767	0.1249243245	0.2741681039
3.7157254561	1.0508437157	0.5401293039	1.5557926893	1.6420228481	0.2093551904	0.1249251440	0.2742085159
3.7198957428	1.0508463383	0.5401269197	1.5557932854	1.6420143843	0.2092906684	0.1249259412	0.2742483318
3.7240660295	1.0508490801	0.5401246548	1.5557938814	1.6420061588	0.2092270404	0.1249267384	0.2742876410
3.7282363162	1.0508517027	0.5401224494	1.5557945967	1.6419979334	0.2091642767	0.1249275208	0.2743263841
3.7324066030	1.0508544445	0.5401202440	1.5557953119	1.6419898272	0.2091023475	0.1249282882	0.2743646204
3.7365768897	1.0508570671	0.5401181579	1.5557960272	1.6419819593	0.2090412825	0.1249290556	0.2744023204
3.7407471764	1.0508598089	0.5401161313	1.5557967424	1.6419739723	0.2089810520	0.1249298006	0.2744395435
3.7449174631	1.0508625507	0.5401141047	1.5557973385	1.6419662237	0.2089216411	0.1249305382	0.2744762301
3.7490877498	1.0508651733	0.5401121974	1.5557981730	1.6419584751	0.2088630348	0.1249312684	0.2745124102
3.7532580365	1.0508677959	0.5401103497	1.5557990074	1.6419510841	0.2088052481	0.1249319911	0.2745481133
3.7574283232	1.0508705378	0.5401085615	1.5557996035	1.6419435740	0.2087482214	0.1249326989	0.2745833099
3.7615986099	1.0508731604	0.5401067734	1.5558004379	1.6419361830	0.2086919993	0.1249333993	0.2746180594
3.7657688966	1.0508757830	0.5401051044	1.5558012724	1.6419289112	0.2086365372	0.1249340847	0.2746523023
3.7699391833	1.0508785248	0.5401034355	1.5558021069	1.6419217587	0.2085818201	0.1249347702	0.2746860981
3.7741094700	1.0508811474	0.5401017666	1.5558028221	1.6419147253	0.2085278630	0.1249354333	0.2747194469
3.7782797567	1.0508836508	0.5401002169	1.5558036566	1.6419076920	0.2084746510	0.1249361038	0.2747523487
3.7824500434	1.0508862734	0.5400986671	1.5558044910	1.6419008970	0.2084221691	0.1249367520	0.2747847736
3.7866203301	1.0508888960	0.5400972366	1.5558052063	1.6418941021	0.2083703876	0.1249373928	0.2748167813
3.7907906169	1.0508915186	0.5400957465	1.5558060408	1.6418873072	0.2083193213	0.1249380335	0.2748483419
3.7949609036	1.0508940220	0.5400943756	1.5558068752	1.6418807507	0.2082689553	0.1249386445	0.2748795152
3.7991311903	1.0508965254	0.5400930047	1.5558078289	1.6418741941	0.2082192749	0.1249392703	0.2749102116
3.8033014770	1.0508990288	0.5400916338	1.5558085442	1.6418676376	0.2081702948	0.1249398813	0.2749405205
3.8074717637	1.0509016514	0.5400903821	1.5558093786	1.6418614388	0.2081219554	0.1249404773	0.2749704421
3.8116420504	1.0509040356	0.5400891304	1.5558102131	1.6418551207	0.2080743015	0.1249410734	0.2749999166
3.8158123371	1.0509065390	0.5400878787	1.5558109283	1.6418489218	0.2080273032	0.1249416545	0.2750290334
3.8199826238	1.0509090424	0.5400866866	1.5558118820	1.6418429613	0.2079809308	0.1249422282	0.2750577331
3.8241529105	1.0509114265	0.5400855541	1.5558127165	1.6418367624	0.2079351991	0.1249428019	0.2750860453
3.8283231972	1.0509138107	0.5400844216	1.5558135509	1.6418309212	0.2078901082	0.1249433607	0.2751139700
3.8324934839	1.0509163141	0.5400833488	1.5558142662	1.6418250799	0.2078456283	0.1249439046	0.2751415372
3.8366637706	1.0509186983	0.5400822759	1.5558151007	1.6418193579	0.2078017592	0.1249444485	0.2751687467
3.8408340573	1.0509210825	0.5400812626	1.5558159351	1.6418136358	0.2077584863	0.1249449924	0.2751955390
3.8450043440	1.0509233475	0.5400801897	1.5558168888	1.6418080330	0.2077158093	0.1249455214	0.2752220333
3.8491746308	1.0509257317	0.5400792360	1.5558176041	1.6418024302	0.2076737285	0.1249460354	0.2752481401
3.8533449175	1.0509279966	0.5400782824	1.5558184385	1.6417969465	0.2076322138	0.1249465644	0.2752738893
3.8575152042	1.0509303808	0.5400773287	1.5558192730	1.6417915821	0.2075912803	0.1249470711	0.2752993107
3.8616854909	1.0509326458	0.5400764346	1.5558199883	1.6417862177	0.2075508982	0.1249475703	0.2753243744
3.8658557776	1.0509349108	0.5400755405	1.5558208227	1.6417809725	0.2075110823	0.1249480620	0.2753491104
3.8700260643	1.0509370565	0.5400746465	1.5558216572	1.6417758465	0.2074718028	0.1249485537	0.2753734887
3.8741963510	1.0509393215	0.5400738120	1.5558223724	1.6417707205	0.2074330598	0.1249490231	0.2753975987
3.8783666377	1.0509415865	0.5400729775	1.5558232069	1.6417657137	0.2073948532	0.1249495000	0.2754213214
3.8825369244	1.0509437323	0.5400722027	1.5558239222	1.6417605877	0.2073571682	0.1249499694	0.2754447460
3.8867072111	1.0509458780	0.5400714278	1.5558246374	1.6417558193	0.2073200196	0.1249504313	0.2754678726
3.8908774978	1.0509480238	0.5400706530	1.5558254719	1.6417509317	0.2072833627	0.1249508783	0.2754906714
3.8950477845	1.0509501696	0.5400698781	1.5558263063	1.6417461634	0.2072472125	0.1249513328	0.2755131721
3.8992180712	1.0509521961	0.5400691628	1.5558269024	1.6417415142	0.2072115541	0.1249517724	0.2755353749
3.9033883579	1.0509542227	0.5400684476	1.5558277369	1.6417367458	0.2071764022	0.1249522045	0.2755572796
3.9075586447	1.0509563684	0.5400677919	1.5558285713	1.6417322159	0.2071417123	0.1249526367	0.2755788863
3.9117289314	1.0509583950	0.5400670767	1.5558291674	1.6417276859	0.2071075141	0.1249530613	0.2756001949
3.9158992181	1.0509604216	0.5400664806	1.5558300018	1.6417232752	0.2070737928	0.1249534786	0.2756212354
3.9200695048	1.0509623289	0.5400658250	1.5558307171	1.6417188644	0.2070405185	0.1249538884	0.2756419778
3.9242397915	1.0509643555	0.5400651693	1.5558314323	1.6417145729	0.2070077062	0.1249543056	0.2756624520
3.9284100782	1.0509662628	0.5400645733	1.5558321476	1.6417102814	0.2069753557	0.1249547005	0.2756826580
3.9325803649	1.0509682894	0.5400639772	1.5558328629	1.6417059898	0.2069434375	0.1249551028	0.2757025659
3.9367506516	1.0509701967	0.5400633812	1.5558335781	1.6417019367	0.2069119662	0.1249554902	0.2757222354
3.9409209383	1.0509721041	0.5400628448	1.5558342934	1.6416977644	0.2068809271	0.1249558702	0.2757416368
3.9450912250	1.0509740114	0.5400622487	1.5558348894	1.6416937113	0.2068503052	0.1249562502	0.2757607698
3.9492615117	1.0509757996	0.5400617123	1.5558356047	1.6416896582	0.2068201005	0.1249566302	0.2757796347
3.9534317984	1.0509777069	0.5400611758	1.5558363199	1.6416858435	0.2067903280	0.1249569878	0.2757982612
3.9576020851	1.0509794950	0.5400606394	1.5558369160	1.6416817904	0.2067609727	0.1249573603	0.2758166492
3.9617723719	1.0509812832	0.5400601625	1.5558376312	1.6416780949	0.2067319900	0.1249577254	0.2758347690
3.9659426586	1.0509830713	0.5400596857	1.5558382273	1.6416741610	0.2067034245	0.1249580756	0.2758526504
3.9701129453	1.0509848595	0.5400592089	1.5558389425	1.6416704655	0.2066752464	0.1249584183	0.2758703232
3.9742832320	1.0509866476	0.5400587320	1.5558396578	1.6416667700	0.2066474706	0.1249587610	0.2758877277
3.9784535187	1.0509883165	0.5400582552	1.5558402538	1.6416631937	0.2066200525	0.1249590963	0.2759048939
3.9826238054	1.0509901047	0.5400577784	1.5558408499	1.6416596174	0.2065930367	0.1249594390	0.2759218514
3.9867940921	1.0509917736	0.5400573611	1.5558414459	1.6416561604	0.2065663785	0.1249597669	0.2759385705
3.9909643788	1.0509934425	0.5400569439	1.5558421612	1.6416524649	0.2065400928	0.1249600872	0.2759550512
3.9951346655	1.0509951115	0.5400565267	1.5558426380	1.6416491270	0.2065141648	0.1249604225	0.2759713233
3.9993049522	1.0509967804	0.5400561094	1.5558433533	1.6416456699	0.2064885944	0.1249607280	0.2759873867
4.0034752389	1.0509983301	0.5400556922	1.5558438301	1.6416423321	0.2064633816	0.1249610335	0.2760032117
4.0076455256	1.0509998798	0.5400553346	1.5558445454	1.6416391134	0.2064384967	0.1249613538	0.2760188580
4.0118158123	1.0510015488	0.5400549173	1.5558450222	1.6416358948	0.2064139694	0.1249616593	0.2760342956
4.0159860990	1.0510030985	0.5400545597	1.5558457375	1.6416326761	0.2063897699	0.1249619573	0.2760494947
4.0201563858	1.0510046482	0.5400542021	1.5558462143	1.6416294575	0.2063659281	0.1249622479	0.2760645151
4.0243266725	1.0510060787	0.5400538445	1.5558468103	1.6416262388	0.2063423842	0.1249625385	0.2760793269
4.0284969592	1.0510076284	0.5400534868	1.5558472872	1.6416232586	0.2063191831	0.1249628291	0.2760939300
4.0326672459	1.0510091782	0.5400531292	1.5558478832	1.6416201591	0.2062962949	0.1249631047	0.2761083245
4.0368375326	1.0510106087	0.5400528312	1.5558483601	1.6416171789	0.2062737048	0.1249633878	0.2761225700
4.0410078193	1.0510121584	0.5400524735	1.5558490753	1.6416141987	0.2062514573	0.1249636635	0.2761365771
4.0451781060	1.0510135889	0.5400521755	1.5558495522	1.6416113377	0.2062295079	0.1249639392	0.2761504352
4.0493483927	1.0510150194	0.5400518179	1.5558500290	1.6416084766	0.2062078416	0.1249642074	0.2761640847
4.0535186794	1.0510163307	0.5400515199	1.5558505058	1.6416056156	0.2061864883	0.1249644756	0.2761775851
4.0576889661	1.0510177612	0.5400512218	1.5558511019	1.6416028738	0.2061654180	0.1249647364	0.2761908472
4.0618592528	1.0510191917	0.5400509238	1.5558515787	1.6416000128	0.2061446458	0.1249649897	0.2762039602
4.0660295395	1.0510205030	0.5400506258	1.5558521748	1.6415972710	0.2061241567	0.1249652430	0.2762169242
4.0701998262	1.0510219336	0.5400503874	1.5558526516	1.6415945292	0.2061039507	0.1249654964	0.2762296796
4.0743701129	1.0510232449	0.5400500894	1.5558530092	1.6415919065	0.2060840279	0.1249657348	0.2762422860
4.0785403997	1.0510245562	0.5400497913	1.5558536053	1.6415892839	0.2060643733	0.1249659881	0.2762547135
